<?xml version="1.0" standalone="no"?>
<!DOCTYPE svg PUBLIC "-//W3C//DTD SVG 20010904//EN"
 "http://www.w3.org/TR/2001/REC-SVG-20010904/DTD/svg10.dtd">
<svg version="1.0" xmlns="http://www.w3.org/2000/svg"
 width="375.000000pt" height="134.000000pt" viewBox="0 0 375.000000 134.000000"
 preserveAspectRatio="xMidYMid meet">

<g transform="translate(0.000000,134.000000) scale(0.100000,-0.100000)"
fill="#000000" stroke="none">
<path d="M2047 1330 c-99 -25 -151 -82 -151 -165 -1 -87 52 -139 178 -176 119
-34 140 -44 152 -68 17 -34 5 -61 -33 -77 -56 -24 -113 1 -138 61 l-13 29 -84
-3 c-45 -1 -85 -5 -87 -7 -11 -10 26 -98 56 -134 48 -55 113 -74 242 -68 145
6 214 52 241 159 31 125 -52 203 -265 249 -47 11 -85 33 -85 52 0 4 9 17 20
28 37 37 110 19 132 -33 13 -29 14 -29 72 -23 32 3 71 6 87 6 27 0 27 1 17 38
-25 92 -90 132 -222 138 -45 2 -98 -1 -119 -6z"/>
<path d="M50 1031 l0 -301 90 0 90 0 0 120 c0 119 0 120 23 120 38 0 57 -21
116 -131 l56 -104 108 -3 107 -3 -46 88 c-63 118 -80 140 -117 160 -22 11 -27
18 -17 21 52 16 83 39 107 79 21 37 25 53 21 99 -5 62 -28 99 -79 129 -31 18
-56 20 -246 23 l-213 4 0 -301z m335 155 c22 -22 23 -28 14 -55 -12 -35 -32
-43 -112 -45 l-52 -1 -3 63 -3 62 66 0 c56 0 69 -3 90 -24z"/>
<path d="M156 606 c-91 -34 -130 -88 -123 -174 6 -86 67 -135 213 -172 92 -23
124 -42 124 -75 0 -38 -33 -65 -80 -65 -52 0 -86 23 -101 67 l-11 35 -87 -7
c-47 -4 -87 -8 -88 -9 -1 -1 7 -25 16 -54 37 -108 107 -147 261 -147 105 1
155 14 201 52 93 78 91 227 -4 289 -35 23 -105 47 -182 64 -62 14 -95 34 -95
60 0 24 29 40 72 40 36 0 72 -25 82 -57 5 -16 16 -18 91 -15 97 4 100 8 63 82
-36 70 -88 94 -213 97 -69 2 -112 -1 -139 -11z"/>
<path d="M867 606 c-125 -45 -182 -139 -180 -296 1 -141 48 -226 150 -276 49
-24 69 -28 147 -29 106 0 154 14 206 61 32 29 88 129 78 139 -6 6 -140 45
-153 45 -7 0 -16 -13 -20 -30 -9 -41 -58 -80 -101 -80 -86 0 -124 53 -124 171
0 115 39 170 121 171 46 0 86 -23 99 -58 7 -17 15 -24 28 -20 9 2 43 10 75 17
32 7 60 16 63 20 9 16 -36 87 -76 122 -23 19 -61 40 -85 46 -59 15 -182 13
-228 -3z"/>
<path d="M2325 610 c-88 -22 -151 -74 -185 -153 -18 -40 -24 -72 -24 -137 -2
-147 45 -235 152 -287 51 -25 68 -28 157 -28 119 1 183 24 241 87 l36 40 33
-40 c54 -62 120 -86 240 -86 83 -1 108 3 150 22 61 28 80 45 117 101 l28 45 0
-82 0 -82 240 0 240 0 0 75 0 75 -150 0 -150 0 0 225 0 225 -90 0 -90 0 0 -82
c-1 -82 -1 -83 -17 -53 -47 90 -130 137 -254 143 -120 6 -184 -14 -249 -77
l-50 -47 -49 47 c-35 33 -66 53 -102 63 -55 17 -172 20 -224 6z m166 -147 c41
-24 59 -70 59 -147 0 -118 -42 -176 -128 -176 -79 0 -122 60 -122 170 0 80 23
139 62 157 35 17 96 15 129 -4z m554 -5 c38 -29 55 -76 55 -148 0 -107 -45
-170 -122 -170 -89 0 -128 52 -128 170 0 118 38 169 126 170 28 0 50 -7 69
-22z"/>
<path d="M1420 310 l0 -300 90 0 89 0 3 122 3 123 100 0 100 0 3 -123 3 -122
89 0 90 0 0 300 0 300 -90 0 -90 0 0 -105 0 -105 -105 0 -105 0 0 105 0 105
-90 0 -90 0 0 -300z"/>
</g>
</svg>
